<?xml version="1.0" encoding="iso-8859-1"?>
<!-- Generator: Adobe Illustrator 18.0.0, SVG Export Plug-In . SVG Version: 6.00 Build 0)  -->
<!DOCTYPE svg PUBLIC "-//W3C//DTD SVG 1.1//EN" "http://www.w3.org/Graphics/SVG/1.1/DTD/svg11.dtd">
<svg version="1.1" id="Capa_1" xmlns="http://www.w3.org/2000/svg" xmlns:xlink="http://www.w3.org/1999/xlink" x="0px" y="0px"
	 viewBox="0 0 468.06 468.06" style="enable-background:new 0 0 468.06 468.06;" xml:space="preserve">
<g>
	<path d="M239.265,119.248c-1.532,3.247-0.143,7.12,3.104,8.653c0.896,0.423,1.841,0.623,2.77,0.623
		c2.438,0,4.774-1.377,5.883-3.727c9.494-20.118,9.495-43.193,0.001-63.31c-7.828-16.59-7.828-35.621,0-52.211
		c1.532-3.247,0.143-7.12-3.104-8.652c-3.249-1.532-7.121-0.141-8.652,3.104c-9.493,20.116-9.493,43.19,0,63.307
		C247.095,83.625,247.095,102.656,239.265,119.248z"/>
	<path d="M217.036,119.248c-1.532,3.247-0.143,7.12,3.104,8.653c0.896,0.423,1.841,0.623,2.77,0.623
		c2.438,0,4.774-1.377,5.883-3.727c9.494-20.118,9.495-43.193,0.001-63.31c-7.828-16.59-7.828-35.621,0-52.211
		c1.532-3.247,0.143-7.12-3.104-8.652c-3.25-1.532-7.121-0.141-8.652,3.104c-9.493,20.116-9.493,43.19,0,63.307
		C224.866,83.625,224.866,102.656,217.036,119.248z"/>
	<path d="M177.493,137.527c-1.749,3.135-0.624,7.094,2.512,8.843c1.002,0.559,2.088,0.824,3.159,0.824
		c2.28,0,4.493-1.203,5.683-3.336c9.784-17.547,9.784-37.673,0.001-55.219c-7.539-13.522-7.539-29.033,0-42.555
		c1.749-3.135,0.624-7.094-2.512-8.843c-3.136-1.748-7.096-0.624-8.842,2.512c-9.782,17.545-9.782,37.671,0,55.216
		C185.033,108.492,185.033,124.004,177.493,137.527z"/>
	<path d="M279.211,137.527c-1.749,3.135-0.624,7.094,2.512,8.843c1.002,0.559,2.088,0.824,3.159,0.824
		c2.28,0,4.493-1.203,5.683-3.336c9.784-17.547,9.784-37.673,0.002-55.219c-7.54-13.522-7.54-29.033,0-42.555
		c1.748-3.135,0.623-7.094-2.513-8.843c-3.135-1.748-7.096-0.624-8.843,2.512c-9.781,17.545-9.781,37.671,0.001,55.216
		C286.751,108.492,286.751,124.004,279.211,137.527z"/>
	<path d="M294.666,356.668c0-9.144-4.494-17.253-11.384-22.251c-0.474-18.563-11.254-34.598-26.826-42.592l29.469-121.374
		c0.847-3.489-1.294-7.003-4.783-7.85c-3.481-0.847-7.002,1.294-7.85,4.783L244.14,287.452c-1.188-0.249-2.394-0.444-3.61-0.605
		V148.918c0-3.59-2.91-6.5-6.5-6.5s-6.5,2.91-6.5,6.5v137.929c-1.217,0.161-2.423,0.356-3.61,0.605l-29.152-120.068
		c-0.847-3.489-4.366-5.631-7.85-4.783c-3.489,0.847-5.63,4.362-4.783,7.85l29.469,121.374
		c-15.572,7.994-26.352,24.029-26.827,42.592c-6.89,4.998-11.383,13.107-11.383,22.251c0,13.675,10.042,25.046,23.139,27.132v29.648
		c-13.097,2.087-23.139,13.458-23.139,27.133c0,15.152,12.326,27.478,27.478,27.478h66.315c15.151,0,27.479-12.327,27.479-27.479
		c0-13.675-10.042-25.045-23.139-27.132V383.8C284.623,381.713,294.666,370.343,294.666,356.668z M209.533,413.103v-28.957h48.994
		v28.957H209.533z M227.53,299.999v14.298c0,3.59,2.91,6.5,6.5,6.5s6.5-2.91,6.5-6.5v-14.298
		c14.845,2.698,26.564,14.451,29.212,29.313c-0.842-0.078-1.693-0.123-2.554-0.123h-66.315c-0.862,0-1.713,0.045-2.554,0.123
		C200.965,314.45,212.685,302.697,227.53,299.999z M186.394,356.668c0-7.983,6.494-14.478,14.478-14.478h66.315
		c7.983,0,14.479,6.495,14.479,14.478s-6.495,14.478-14.479,14.478h-66.315C192.888,371.146,186.394,364.651,186.394,356.668z
		 M281.666,440.581c0,7.983-6.495,14.478-14.479,14.478h-66.315c-7.983,0-14.478-6.495-14.478-14.479s6.494-14.478,14.478-14.478
		h66.315C275.171,426.103,281.666,432.598,281.666,440.581z"/>
</g>
<g>
</g>
<g>
</g>
<g>
</g>
<g>
</g>
<g>
</g>
<g>
</g>
<g>
</g>
<g>
</g>
<g>
</g>
<g>
</g>
<g>
</g>
<g>
</g>
<g>
</g>
<g>
</g>
<g>
</g>
</svg>
