<?xml version="1.0" encoding="iso-8859-1"?>
<!-- Generator: Adobe Illustrator 18.0.0, SVG Export Plug-In . SVG Version: 6.00 Build 0)  -->
<!DOCTYPE svg PUBLIC "-//W3C//DTD SVG 1.1//EN" "http://www.w3.org/Graphics/SVG/1.1/DTD/svg11.dtd">
<svg version="1.1" id="Capa_1" xmlns="http://www.w3.org/2000/svg" xmlns:xlink="http://www.w3.org/1999/xlink" x="0px" y="0px"
	 viewBox="0 0 484.36 484.36" style="enable-background:new 0 0 484.36 484.36;" xml:space="preserve">
<path d="M330.701,217.154l0.572-0.204c3.262-1.165,5.037-4.684,4.036-8l-10.372-34.357c-3.813-12.628-12.837-23.106-24.761-28.747
	l-28.374-13.424l-3.146-11.225C282.192,112.469,291.18,97.269,291.18,80c0-4.812-0.709-9.459-2.008-13.855
	c14.875-3.413,26.008-16.749,26.008-32.645c0-18.472-15.028-33.5-33.5-33.5c-17.762,0-32.333,13.898-33.427,31.39
	c-1.992-0.247-4.016-0.39-6.073-0.39c-27.019,0-49,21.981-49,49c0,17.269,8.988,32.469,22.524,41.198l-3.147,11.225l-28.373,13.424
	c-11.923,5.641-20.948,16.118-24.762,28.747l-10.371,34.357c-1.001,3.316,0.774,6.835,4.036,8l1.398,0.499
	c-3.485,18.726-11.85,78.518,14.995,114.31c1.236,1.649,3.17,2.6,5.199,2.6c0.272,0,0.547-0.017,0.82-0.052
	c2.319-0.295,4.301-1.812,5.191-3.973c3.475-8.438,2.979-22.266,2.353-39.772c-0.759-21.224-1.689-47.571,5.299-67.126l1.697-2.545
	l2.492,17.866c0.448,3.212,3.194,5.602,6.438,5.602h0.298v13.998h-0.783c-3.39,0-6.21,2.604-6.479,5.983l-16.993,213.002
	c-0.145,1.808,0.474,3.594,1.704,4.927s2.962,2.09,4.775,2.09H302.87c1.819,0,3.555-0.762,4.786-2.102
	c1.23-1.339,1.844-3.133,1.69-4.946l-5.09-60.273c16.712-37.752,16.493-66.425,11.911-85.842
	C342.649,295.157,334.134,235.452,330.701,217.154z M314.601,306.714c-0.014-4.899,0.119-10.291,0.255-15.797
	c0.505-20.481,1.1-45.493-4.853-66.371l8.257-2.949C320.963,237.272,325.923,276.506,314.601,306.714z M294.661,291.612
	l-2.304-27.298c-0.283-3.366-3.099-5.953-6.477-5.953h-0.787v-14h0.297c3.243,0,5.989-2.39,6.438-5.602l2.493-17.867l1.698,2.547
	c7.002,19.577,6.365,45.93,5.841,67.158c-0.077,3.134-0.151,6.145-0.201,9.033C298.88,295.913,296.365,293.253,294.661,291.612z
	 M193.878,404.316l8.87,11.713l-2.204,24.362l-8.693-10.658L193.878,404.316z M197.205,362.622l9.18,13.22l-1.896,20.952
	l-9.056-11.959L197.205,362.622z M211.784,316.176l-9.879-12.466l0.863-10.811l11.025,1.075L211.784,316.176z M200.388,322.727
	l9.696,12.235l-1.875,20.716l-9.374-13.499L200.388,322.727z M226.732,295.235l3.495,0.341l-1.975,175.785h-17.458L226.732,295.235z
	 M203.801,279.938l0.685-8.58l55.356,0.002l-4.253,13.626L203.801,279.938z M273.461,271.36h6.445l1.361,16.129l-12.461-1.215
	L273.461,271.36z M312.492,178.351l8.585,28.437l-16.586,5.924l-8.837-13.256c-1.498-2.246-4.23-3.331-6.856-2.731
	c-2.631,0.601-4.616,2.766-4.989,5.438l-4.074,29.198h-30.725l15.019-5.245c4.792-1.674,8.635-5.118,10.82-9.7
	c2.185-4.581,2.443-9.735,0.729-14.511c-5.106-14.226-1.59-30.412,8.96-41.236l5.229-5.366l4.852,2.295
	C303.225,161.67,309.74,169.234,312.492,178.351z M214.878,158.633c6.051,4.561,13.198,7.583,20.802,8.69v50.382l-11.063-3.863
	c-1.493-0.521-2.69-1.595-3.372-3.022c-0.681-1.428-0.762-3.034-0.227-4.523C226.76,190.306,224.283,172.449,214.878,158.633z
	 M219.728,143.412c6.804,3.9,14.459,5.945,22.452,5.945c7.993,0,15.648-2.045,22.451-5.945l1.532,0.725
	c-6.067,6.697-14.756,10.67-23.984,10.67c-9.228,0-17.917-3.973-23.985-10.67L219.728,143.412z M263.341,206.298
	c0.534,1.488,0.453,3.094-0.228,4.521c-0.681,1.428-1.878,2.501-3.371,3.023l-11.063,3.863v-50.382
	c7.604-1.107,14.75-4.129,20.801-8.69C260.077,172.448,257.601,190.305,263.341,206.298z M208.181,91.813
	c4.549-13.057,16.352-22.389,30.001-23.931c-1.65,1.225-2.725,3.182-2.725,5.396c0,3.713,3.01,6.723,6.723,6.723
	s6.723-3.01,6.723-6.723c0-2.213-1.074-4.171-2.725-5.396c13.649,1.542,25.453,10.874,30.001,23.932
	C271.279,105.877,257.893,116,242.18,116S213.081,105.877,208.181,91.813z M261.18,33.5c0-11.304,9.196-20.5,20.5-20.5
	s20.5,9.196,20.5,20.5c0,10.649-8.163,19.42-18.559,20.402c-5.323-8.421-13.128-15.124-22.392-19.047
	C261.199,34.405,261.18,33.954,261.18,33.5z M242.18,44c15.85,0,29.33,10.3,34.124,24.555c-8.956-8.674-21.117-13.905-34.124-13.905
	s-25.168,5.231-34.124,13.905C212.85,54.3,226.33,44,242.18,44z M242.18,129c5.062,0,9.947-0.772,14.544-2.204l1.483,5.29
	c-4.856,2.79-10.315,4.271-16.027,4.271c-5.712,0-11.172-1.481-16.027-4.271l1.483-5.29C232.233,128.228,237.118,129,242.18,129z
	 M166.929,221.894l7.435,2.655c-5.919,20.92-5.046,45.968-4.312,66.479c0.189,5.301,0.376,10.495,0.422,15.243
	C159.435,276.316,164.228,237.687,166.929,221.894z M195.563,196.724c-2.627-0.6-5.358,0.485-6.856,2.731l-8.837,13.256
	l-16.586-5.924l8.584-28.437c2.753-9.116,9.269-16.681,17.876-20.753l4.851-2.295l5.229,5.366
	c10.55,10.824,14.066,27.01,8.959,41.236c-1.715,4.777-1.455,9.931,0.73,14.512c2.185,4.581,6.027,8.025,10.819,9.698l15.019,5.245
	h-30.726l-4.073-29.197C200.179,199.49,198.194,197.325,195.563,196.724z M212.267,244.36h59.826v14l-59.826-0.002V244.36z
	 M190.356,448.468l8.513,10.437l-1.127,12.455h-9.212L190.356,448.468z M241.254,471.36l1.961-174.519l19.586,1.909
	c5.302,19.453,26.776,99.038,28.358,117.746c0.002,0.023,0.009,0.044,0.011,0.066l4.627,54.798H241.254z M299.871,391.915
	c-6.384-29.08-18.093-72.889-23.229-91.815l9.016,0.879C291.828,306.909,317.242,335.622,299.871,391.915z"/>
<g>
</g>
<g>
</g>
<g>
</g>
<g>
</g>
<g>
</g>
<g>
</g>
<g>
</g>
<g>
</g>
<g>
</g>
<g>
</g>
<g>
</g>
<g>
</g>
<g>
</g>
<g>
</g>
<g>
</g>
</svg>
