<?xml version="1.0" encoding="iso-8859-1"?>
<!-- Generator: Adobe Illustrator 18.0.0, SVG Export Plug-In . SVG Version: 6.00 Build 0)  -->
<!DOCTYPE svg PUBLIC "-//W3C//DTD SVG 1.1//EN" "http://www.w3.org/Graphics/SVG/1.1/DTD/svg11.dtd">
<svg version="1.1" id="Capa_1" xmlns="http://www.w3.org/2000/svg" xmlns:xlink="http://www.w3.org/1999/xlink" x="0px" y="0px"
	 viewBox="0 0 446.048 446.048" style="enable-background:new 0 0 446.048 446.048;" xml:space="preserve">
<g>
	<circle cx="223.024" cy="170.556" r="6.723"/>
	<path d="M335.303,223.532c-27.413-23.283-42.456-57.577-41.043-92.83h8.721c15.068,0,27.327-12.259,27.327-27.327
		c0-7.234-2.83-13.815-7.435-18.708c4.798-6.538,7.454-14.472,7.454-22.753c0-21.229-17.271-38.5-38.5-38.5
		c-3.729,0-7.396,0.532-10.911,1.57C276.896,10.59,263.663,0,248.004,0c-9.097,0-17.732,3.665-24.057,9.924
		c-7.219-5.307-16.007-8.244-25.099-8.244c-21.619,0-39.508,16.275-42.061,37.216c-1.592-0.227-3.201-0.343-4.812-0.343
		c-18.84,0-34.167,15.327-34.167,34.167c0,5.075,1.122,9.987,3.24,14.493c-3.334,4.53-5.31,10.119-5.31,16.163
		c0,15.068,12.259,27.327,27.327,27.327h8.721c1.414,35.253-13.629,69.546-41.043,92.83
		c-31.674,26.902-49.117,63.026-49.117,101.719c0,37.621,16.715,68.951,48.338,90.604c28.849,19.753,67.944,30.194,113.059,30.194
		c45.114,0,84.209-10.441,113.058-30.194c31.623-21.652,48.338-52.983,48.338-90.604
		C384.42,286.558,366.977,250.434,335.303,223.532z M349.581,379.382c-12.643-12.238-32.449-12.237-45.1,0.007
		c-6.788,6.563-17.408,6.578-24.202,0.04c-0.016-0.016-0.032-0.032-0.048-0.048c-12.643-12.237-32.45-12.237-45.1,0.008
		c-3.269,3.161-7.572,4.902-12.116,4.902c-4.544,0-8.853-1.743-12.122-4.896c-6.079-5.89-14.09-9.134-22.559-9.134
		c-8.462,0-16.47,3.244-22.543,9.128c-3.269,3.161-7.572,4.902-12.117,4.902c-4.544,0-8.853-1.743-12.121-4.896
		c-12.559-12.169-32.188-12.251-44.842-0.245c-0.088,0.077-0.174,0.157-0.259,0.239c-0.591,0.571-1.223,1.077-1.874,1.552
		c-5.034-6.704-9.039-13.966-11.974-21.73h280.839c-2.935,7.765-6.941,15.029-11.977,21.734
		C350.812,380.465,350.175,379.956,349.581,379.382z M78.392,344.21c-0.714-3.73-1.212-7.552-1.49-11.46h292.244
		c-0.278,3.908-0.776,7.73-1.49,11.46H78.392z M76.889,317.75c0.534-7.958,1.909-15.773,4.101-23.369l18.341,17.752
		c2.907,2.814,7.523,2.814,10.432,0l24.403-23.618l24.398,23.618c2.907,2.814,7.524,2.814,10.433,0l24.399-23.618l24.402,23.618
		c2.908,2.814,7.524,2.814,10.432,0l24.403-23.619l24.405,23.619c2.908,2.814,7.524,2.814,10.432,0l24.404-23.619l24.408,23.619
		c1.454,1.407,3.334,2.11,5.215,2.11s3.762-0.703,5.215-2.11l18.346-17.754c2.192,7.596,3.568,15.412,4.102,23.37H76.889z
		 M359.381,279.001l-17.884,17.307l-24.408-23.62c-2.907-2.814-7.524-2.814-10.431,0l-24.404,23.619l-24.405-23.619
		c-2.908-2.814-7.524-2.814-10.432,0l-24.403,23.618l-24.403-23.618c-2.908-2.815-7.524-2.814-10.432,0l-24.399,23.617
		l-24.398-23.617c-2.908-2.815-7.525-2.815-10.432,0l-24.403,23.618l-17.879-17.305c2.141-4.719,4.614-9.323,7.408-13.791h257.898
		C354.767,269.678,357.24,274.282,359.381,279.001z M153.675,204c8.456,0,16.462-3.238,22.549-9.124
		c3.266-3.164,7.567-4.906,12.111-4.906c4.551,0,8.855,1.742,12.132,4.917c6.091,5.876,14.099,9.113,22.548,9.113
		c8.456,0,16.462-3.238,22.556-9.131c6.78-6.562,17.395-6.575,24.189-0.038c0.017,0.016,0.034,0.033,0.05,0.049
		c6.177,5.976,14.285,9.132,22.531,9.131c2.062,0,4.132-0.201,6.183-0.601c2.01,3.27,4.164,6.462,6.465,9.56
		c-0.167,0.155-0.344,0.299-0.507,0.457c-6.787,6.563-17.408,6.577-24.202,0.04c-0.016-0.016-0.032-0.031-0.048-0.047
		c-12.643-12.237-32.45-12.237-45.1,0.008c-3.269,3.161-7.572,4.902-12.116,4.902c-4.544,0-8.853-1.743-12.122-4.896
		c-6.079-5.89-14.09-9.134-22.559-9.134c-8.462,0-16.47,3.244-22.543,9.128c-3.269,3.161-7.572,4.902-12.117,4.902
		c-4.544,0-8.853-1.743-12.11-4.886c-0.165-0.161-0.344-0.305-0.513-0.462c2.304-3.102,4.46-6.297,6.473-9.571
		C149.541,203.799,151.595,204,153.675,204z M151.976,53.553c3.132,0,6.121,0.735,8.883,2.184c2.496,1.309,5.516,1.109,7.817-0.519
		c2.301-1.628,3.495-4.409,3.09-7.198c-0.192-1.328-0.29-2.663-0.29-3.967c0-15.094,12.279-27.373,27.373-27.373
		c7.796,0,15.247,3.346,20.443,9.179c1.602,1.799,3.963,2.718,6.367,2.472c2.396-0.246,4.528-1.628,5.731-3.714
		c3.42-5.932,9.787-9.617,16.615-9.617c10.161,0,18.477,7.953,19.105,17.958c-7.398,7.014-11.782,16.875-11.782,27.252
		c0,4.142,3.358,7.5,7.5,7.5s7.5-3.358,7.5-7.5c0-7.785,4.107-15.093,10.734-19.173c3.314-1.714,6.984-2.624,10.766-2.624
		c12.958,0,23.5,10.542,23.5,23.5c0,5.542-1.948,10.832-5.435,15.022c-2.208-0.578-4.524-0.887-6.911-0.887h-62.673
		c2.459-13.658-4.6-27.775-17.836-33.651c-7.525-3.344-15.903-3.554-23.588-0.594c-7.686,2.96-13.759,8.736-17.102,16.264
		c-1.681,3.786,0.026,8.217,3.812,9.898c3.786,1.68,8.217-0.025,9.898-3.812c1.716-3.866,4.835-6.833,8.783-8.353
		c3.945-1.52,8.244-1.412,12.108,0.305c7.667,3.404,11.285,12.184,8.423,19.943h-81.741c-3.366,0-6.59,0.615-9.57,1.733
		c-0.446-1.634-0.687-3.33-0.687-5.062C132.809,62.151,141.407,53.553,151.976,53.553z M130.739,103.375
		c0-6.797,5.53-12.327,12.327-12.327h159.916c6.797,0,12.327,5.53,12.327,12.327s-5.53,12.327-12.327,12.327H143.066
		C136.269,115.702,130.739,110.172,130.739,103.375z M279.245,130.702c-0.403,11.378,0.715,22.658,3.232,33.581
		c-2.523,0.968-4.318,3.408-4.318,6.272c0,3.713,3.01,6.723,6.723,6.723c0.433,0,0.856-0.045,1.267-0.123
		c1.366,3.997,2.93,7.926,4.678,11.776c-3.878-0.341-7.615-1.973-10.549-4.794c-0.016-0.016-0.032-0.031-0.048-0.046
		c-12.642-12.236-32.449-12.237-45.1,0.008c-3.269,3.161-7.572,4.902-12.116,4.902c-4.544,0-8.853-1.743-12.122-4.896
		c-6.079-5.89-14.09-9.134-22.559-9.134c-8.462,0-16.47,3.244-22.543,9.128c-2.895,2.799-6.602,4.479-10.568,4.828
		c1.747-3.849,3.31-7.776,4.676-11.771c0.411,0.078,0.833,0.123,1.266,0.123c3.713,0,6.723-3.01,6.723-6.723
		c0-2.864-1.794-5.304-4.318-6.272c2.517-10.923,3.635-22.204,3.232-33.582L279.245,130.702z M120.455,234.964
		c3.884-3.299,7.546-6.794,10.981-10.463c6.051,5.693,13.929,8.829,22.239,8.829c8.456,0,16.462-3.238,22.549-9.124
		c3.266-3.164,7.567-4.906,12.111-4.906c4.551,0,8.855,1.742,12.132,4.917c6.091,5.876,14.099,9.113,22.548,9.113
		c8.456,0,16.462-3.238,22.556-9.131c6.78-6.563,17.395-6.575,24.188-0.038c0.017,0.016,0.033,0.032,0.049,0.048
		c6.317,6.114,14.423,9.173,22.538,9.172c7.981-0.001,15.965-2.968,22.257-8.891c3.437,3.672,7.103,7.172,10.99,10.473
		c5.624,4.777,10.736,9.878,15.332,15.246H105.123C109.719,244.842,114.831,239.741,120.455,234.964z M327.608,403.477
		c-25.966,17.779-63.108,27.571-104.583,27.571s-78.618-9.792-104.584-27.571c-5.077-3.477-9.708-7.241-13.887-11.272
		c0.709-0.567,1.403-1.157,2.069-1.788c0.092-0.081,0.183-0.164,0.271-0.25c6.791-6.58,17.43-6.581,24.234,0.011
		c6.09,5.876,14.098,9.113,22.547,9.113c8.456,0,16.462-3.238,22.549-9.124c3.266-3.164,7.567-4.906,12.111-4.906
		c4.551,0,8.855,1.742,12.132,4.917c6.091,5.876,14.099,9.113,22.548,9.113c8.456,0,16.462-3.238,22.556-9.131
		c6.78-6.562,17.393-6.575,24.188-0.038c0.017,0.016,0.033,0.032,0.049,0.048c6.319,6.116,14.429,9.175,22.543,9.174
		c8.116,0,16.237-3.061,22.57-9.184c6.793-6.575,17.435-6.574,24.241,0.014c0.747,0.722,1.526,1.396,2.327,2.037
		C337.312,396.24,332.683,400.002,327.608,403.477z"/>
</g>
<g>
</g>
<g>
</g>
<g>
</g>
<g>
</g>
<g>
</g>
<g>
</g>
<g>
</g>
<g>
</g>
<g>
</g>
<g>
</g>
<g>
</g>
<g>
</g>
<g>
</g>
<g>
</g>
<g>
</g>
</svg>
