<?xml version="1.0" encoding="iso-8859-1"?>
<!-- Generator: Adobe Illustrator 18.0.0, SVG Export Plug-In . SVG Version: 6.00 Build 0)  -->
<!DOCTYPE svg PUBLIC "-//W3C//DTD SVG 1.1//EN" "http://www.w3.org/Graphics/SVG/1.1/DTD/svg11.dtd">
<svg version="1.1" id="Capa_1" xmlns="http://www.w3.org/2000/svg" xmlns:xlink="http://www.w3.org/1999/xlink" x="0px" y="0px"
	 viewBox="0 0 437.575 437.575" style="enable-background:new 0 0 437.575 437.575;" xml:space="preserve">
<path d="M432.726,269.717l-0.329-0.516c-8.964-14.052-27.349-18.746-41.854-10.687c-6.729,3.738-14.654,8.133-23.055,12.79
	c12.523-18.862,19.323-41.575,19.323-66.967c0-26.11-7.09-51.667-20.504-73.912c-11.135-18.458-17.036-39.729-17.075-61.525
	c3.06-4.224,4.765-9.357,4.765-14.625c0-12.446-9.183-22.789-21.129-24.607c-3.523-9.597-12.755-16.311-23.354-16.311
	c-4.763,0-9.418,1.395-13.393,3.935c-3.974-2.54-8.63-3.935-13.392-3.935c-4.763,0-9.418,1.395-13.393,3.935
	c-3.974-2.54-8.63-3.935-13.392-3.935c-4.763,0-9.419,1.395-13.393,3.935c-3.974-2.54-8.63-3.935-13.393-3.935
	c-4.762,0-9.418,1.395-13.392,3.935c-3.975-2.54-8.63-3.935-13.393-3.935s-9.418,1.395-13.392,3.935
	c-3.975-2.54-8.631-3.935-13.393-3.935c-10.594,0-19.817,6.702-23.347,16.287c-12.024,1.749-21.29,12.128-21.29,24.631
	c0,6.379,2.389,12.387,6.734,17.016c-0.214,9.99-1.643,19.881-4.286,29.441c-2.895,10.479-7.184,20.469-12.75,29.695
	c-13.413,22.243-20.503,47.801-20.503,73.911c0,3.64,0.144,7.243,0.415,10.766c-7.897,5.1-14.76,11.93-20.034,20.179l-0.399,0.624
	c-12.382,19.369-29.244,35.952-48.763,47.957L3.095,301.256c-3.058,1.881-4.011,5.885-2.13,8.942
	c1.883,3.058,5.888,4.011,8.942,2.129l28.271-17.392c21.179-13.025,39.474-31.017,52.903-52.025l0.399-0.624
	c9.704-15.179,26.055-24.382,43.735-24.616c5.203-0.07,10.447,0.416,15.507,1.429l93.307,19.509
	c3.885,0.813,7.187,3.111,9.298,6.473c2.11,3.361,2.746,7.333,1.79,11.185c-1.824,7.345-8.834,11.996-16.312,10.812l-46.291-7.32
	c-7.039-1.145-14.323,0.708-19.965,5.083c-5.642,4.375-9.247,10.963-9.892,18.073c-1.21,13.345,8.192,25.552,21.403,27.789
	l91.668,15.527c9.561,1.62,19.499-0.073,27.98-4.764c18.91-10.458,65.841-36.421,93.146-51.588
	c8.509-4.727,19.309-1.954,24.582,6.313l0.329,0.517c2.57,4.029,3.411,8.816,2.367,13.48c-1.045,4.665-3.847,8.637-7.891,11.185
	l-121.1,76.316c-2.679,1.693-5.511,3.138-8.447,4.327l-5.54-17.16c-4.696-14.544-20.349-22.557-34.895-17.862
	c-6.286,2.029-11.525,6.138-14.979,11.681c-4.944-14.137-20.34-21.854-34.671-17.225c-7.046,2.274-12.784,7.157-16.158,13.748
	c-0.081,0.159-0.154,0.321-0.232,0.481c-6.04-11.979-20.102-18.134-33.26-13.884c-10.829,3.496-18.033,13.067-19.071,23.733
	l-11.447-1.729c-8.926-1.348-17.994,0.64-25.537,5.601L43.23,400.755c-3,1.973-3.832,6.003-1.859,9.002
	c1.249,1.899,3.322,2.929,5.437,2.929c1.226,0,2.466-0.346,3.565-1.07l47.677-31.355c4.859-3.195,10.699-4.479,16.453-3.608
	l15.333,2.317l6.73,20.845c2.274,7.046,7.156,12.785,13.747,16.158c3.969,2.031,8.269,3.059,12.602,3.059
	c2.863,0,5.742-0.449,8.546-1.354c7.046-2.274,12.783-7.157,16.157-13.748c0.083-0.162,0.156-0.327,0.236-0.49
	c4.744,9.415,14.437,15.236,24.76,15.236c2.814,0,5.678-0.433,8.497-1.343c6.291-2.031,11.532-6.144,14.986-11.692
	c3.969,11.359,14.673,18.58,26.167,18.58c2.814,0,5.678-0.433,8.497-1.343c7.046-2.274,12.783-7.157,16.157-13.748
	c2.315-4.522,3.325-9.476,2.998-14.417c4.249-1.589,8.334-3.609,12.166-6.03l121.093-76.312
	c6.993-4.407,11.839-11.276,13.645-19.343C438.625,284.962,437.172,276.683,432.726,269.717z M155.845,42.383
	c0.331,0,0.657,0.028,0.981,0.054c3.465,0.292,6.552-2.218,6.981-5.676c0.737-5.932,5.803-10.405,11.783-10.405
	c3.3,0,6.374,1.337,8.656,3.765c1.229,1.307,2.942,2.048,4.736,2.048c1.795,0,3.509-0.742,4.737-2.049
	c2.28-2.427,5.354-3.764,8.654-3.764c3.301,0,6.375,1.337,8.655,3.764c1.229,1.308,2.943,2.049,4.737,2.049s3.509-0.742,4.737-2.049
	c2.28-2.427,5.354-3.764,8.654-3.764c3.301,0,6.375,1.337,8.655,3.764c1.229,1.308,2.943,2.049,4.737,2.049s3.509-0.742,4.737-2.049
	c2.28-2.427,5.354-3.764,8.655-3.764c3.3,0,6.374,1.337,8.654,3.764c1.229,1.308,2.943,2.049,4.737,2.049s3.509-0.742,4.737-2.049
	c2.28-2.427,5.354-3.764,8.655-3.764c3.3,0,6.374,1.337,8.654,3.764c1.229,1.308,2.943,2.049,4.737,2.049s3.509-0.742,4.737-2.049
	c2.28-2.427,5.354-3.764,8.655-3.764c5.978,0,11.043,4.471,11.782,10.4c0.428,3.433,3.479,5.933,6.92,5.678l0.107-0.008
	c0.26-0.019,0.519-0.043,0.783-0.043c6.557,0,11.891,5.334,11.891,11.891c0,2.96-1.069,5.728-3.019,7.906H146.982
	c-1.95-2.181-3.028-4.958-3.028-7.906C143.954,47.717,149.288,42.383,155.845,42.383z M336.897,81.931H150.07
	c0.223-2.244,0.395-4.494,0.505-6.751h185.811C336.494,77.438,336.675,79.688,336.897,81.931z M175.605,284.088
	c0.324-3.583,2.068-6.77,4.911-8.974s6.366-3.102,9.94-2.52l46.318,7.325c14.18,2.241,27.499-6.578,30.959-20.521
	c1.814-7.311,0.607-14.851-3.398-21.229c-4.006-6.38-10.272-10.743-17.646-12.284l-93.359-19.52
	c-6.008-1.205-12.171-1.767-18.286-1.693c-7.558,0.1-14.916,1.51-21.812,4.076c-0.05-1.462-0.083-2.93-0.083-4.411
	c0-23.744,6.444-46.98,18.635-67.196c6.179-10.241,10.938-21.326,14.148-32.946c0.846-3.058,1.569-6.15,2.192-9.263h190.708
	c2.98,14.891,8.483,29.179,16.343,42.208c12.191,20.217,18.636,43.454,18.636,67.198c0,28.91-9.673,54.29-27.974,73.396
	c-17.151,17.906-41.397,30.092-70.152,35.305l-89.452-15.152C179.673,296.775,175.005,290.714,175.605,284.088z M176.046,398.006
	c-1.791,3.5-4.838,6.092-8.579,7.3c-3.743,1.207-7.73,0.885-11.229-0.905c-3.5-1.792-6.092-4.838-7.3-8.58l-7.467-23.125
	c-2.493-7.724,1.762-16.036,9.485-18.529c1.498-0.483,3.017-0.713,4.512-0.713c6.216,0,12.008,3.973,14.018,10.198l7.466,23.126
	C178.159,390.518,177.838,394.506,176.046,398.006z M225.696,397.661c-1.791,3.5-4.838,6.092-8.579,7.3v0
	c-7.722,2.493-16.036-1.762-18.529-9.485l-7.466-23.125c-1.208-3.742-0.887-7.729,0.904-11.229c1.792-3.5,4.839-6.092,8.58-7.3
	c1.498-0.483,3.017-0.713,4.512-0.713c6.216,0,12.008,3.973,14.018,10.198l7.466,23.126
	C227.809,390.173,227.488,394.161,225.696,397.661z M275.347,403.205c-1.791,3.5-4.838,6.092-8.579,7.3
	c-7.727,2.493-16.036-1.761-18.529-9.485l-7.466-23.126c-1.208-3.741-0.887-7.729,0.905-11.229c1.791-3.5,4.838-6.092,8.579-7.3
	c1.498-0.483,3.017-0.713,4.512-0.713c6.216,0,12.008,3.973,14.018,10.198l7.466,23.126
	C277.46,395.718,277.139,399.705,275.347,403.205z"/>
<g>
</g>
<g>
</g>
<g>
</g>
<g>
</g>
<g>
</g>
<g>
</g>
<g>
</g>
<g>
</g>
<g>
</g>
<g>
</g>
<g>
</g>
<g>
</g>
<g>
</g>
<g>
</g>
<g>
</g>
</svg>
