<?xml version="1.0" encoding="iso-8859-1"?>
<!-- Generator: Adobe Illustrator 18.0.0, SVG Export Plug-In . SVG Version: 6.00 Build 0)  -->
<!DOCTYPE svg PUBLIC "-//W3C//DTD SVG 1.1//EN" "http://www.w3.org/Graphics/SVG/1.1/DTD/svg11.dtd">
<svg version="1.1" id="Capa_1" xmlns="http://www.w3.org/2000/svg" xmlns:xlink="http://www.w3.org/1999/xlink" x="0px" y="0px"
	 viewBox="0 0 474.523 474.523" style="enable-background:new 0 0 474.523 474.523;" xml:space="preserve">
<g>
	<path d="M148.207,125.052c-0.285-1.57-0.586-3.161-0.89-4.767c-3.944-20.865-7.669-40.572,11.395-54.87
		c2.011-1.508,4.899-3.187,7.246-2.62c2.457,0.593,5.124,3.618,7.511,8.517c1.279,2.626,4.157,4.076,7.023,3.545
		c2.872-0.53,5.038-2.91,5.295-5.819c0.163-1.84,1.325-18.258-7.891-27.856c-4.378-4.56-10.396-6.794-17.393-6.459
		c-11.558,0.55-22.31,5.326-30.594,13.506c-0.448-11.649-2.8-24.368-9.541-33.801c-5.812-8.132-14.002-12.876-24.346-14.099
		C78.242-1.772,64.543,6.278,57.434,23c-1.049,2.468-0.475,5.326,1.444,7.197s4.791,2.372,7.231,1.261
		c0.162-0.074,16.295-7.261,24.267,2.842c3.064,3.883,4.037,8.57,2.914,16.157c-0.024-0.027-0.046-0.056-0.07-0.082
		c-8.519-9.497-20.116-15.055-32.654-15.652c-6.991-0.332-13.016,1.9-17.393,6.459c-9.216,9.599-8.054,26.016-7.891,27.856
		c0.257,2.909,2.423,5.289,5.295,5.819c2.87,0.53,5.744-0.92,7.023-3.545c2.387-4.899,5.054-7.924,7.511-8.517
		c2.345-0.566,5.235,1.112,7.246,2.62c19.064,14.298,15.338,34.005,11.395,54.87c-0.304,1.606-0.604,3.197-0.89,4.767
		c-4.901,26.957,10.951,42.317,22.888,48.288v9.237c-3.356,0.256-6,3.054-6,6.475s2.645,6.219,6,6.475v42.55
		c-3.356,0.256-6,3.054-6,6.475s2.645,6.219,6,6.475v42.55c-3.356,0.256-6,3.054-6,6.475s2.645,6.219,6,6.475v42.55
		c-3.356,0.256-6,3.054-6,6.475s2.645,6.219,6,6.475v42.55c-3.356,0.256-6,3.054-6,6.475s2.645,6.219,6,6.475v50.496
		c0,3.59,2.91,6.5,6.5,6.5h17.999c3.59,0,6.5-2.91,6.5-6.5v-50.496c3.356-0.256,6-3.054,6-6.475s-2.645-6.219-6-6.475v-42.55
		c3.356-0.256,6-3.054,6-6.475s-2.645-6.219-6-6.475v-42.55c3.356-0.256,6-3.054,6-6.475s-2.645-6.219-6-6.475v-42.55
		c3.356-0.256,6-3.054,6-6.475s-2.645-6.219-6-6.475v-42.55c3.356-0.256,6-3.054,6-6.475s-2.645-6.219-6-6.475v-9.987
		C138.475,166.139,152.914,150.944,148.207,125.052z M108.75,349.052v-42.5h4.999v42.5H108.75z M113.749,362.052v42.5h-4.999v-42.5
		H113.749z M108.75,293.552v-42.5h4.999v42.5H108.75z M108.75,238.052v-42.5h4.999v42.5H108.75z M108.75,182.552v-7h4.999v7H108.75z
		 M100.582,26.248c-6.17-7.82-14.295-10.188-21.603-10.325c4.177-2.555,9.297-3.42,15.514-2.685
		c6.643,0.786,11.643,3.642,15.286,8.733c5.039,7.041,7.526,18.464,7.191,33.036c-0.266,11.59-2.257,21.017-2.277,21.111
		l0.013,0.003c-1.241,4.922-2.048,10.17-2.384,15.702c-0.771,12.731-0.249,23.29,0.172,31.774
		c0.304,6.127,0.676,13.642-0.164,16.119l-3.594-0.003c-0.839-2.481-0.467-9.992-0.163-16.116c0.42-8.484,0.943-19.042,0.172-31.774
		c-0.575-9.481-2.512-18.144-5.706-25.721C107.036,52.13,109.653,37.743,100.582,26.248z M85.652,127.378
		c0.28-1.541,0.575-3.102,0.874-4.678c4.087-21.621,9.173-48.528-16.369-67.684c-5.942-4.457-11.806-6.137-17.435-5.004
		c1.141-1.129,3.127-2.502,7.226-2.303c20.166,0.96,34.226,18.585,35.821,44.901c0.729,12.017,0.225,22.178-0.18,30.344
		c-0.723,14.593-1.2,24.234,7.006,28.466c1.668,0.861,3.563,1.297,5.634,1.297h4.61c2.071,0,3.966-0.436,5.633-1.296
		c8.207-4.232,7.729-13.873,7.006-28.467c-0.404-8.165-0.908-18.327-0.179-30.344c1.595-26.316,15.655-43.94,35.821-44.901
		c4.105-0.196,6.085,1.175,7.226,2.303c-5.63-1.135-11.493,0.547-17.435,5.004c-25.542,19.156-20.456,46.064-16.369,67.684
		c0.298,1.576,0.593,3.137,0.874,4.678c2.054,11.298-0.352,20.627-7.152,27.73c-0.041,0.043-0.083,0.086-0.125,0.129
		c-4.605,4.754-11.022,7.315-17.641,7.315h-0.023c-6.938,0-13.65-2.811-18.279-7.979C87.287,149.092,83.275,140.453,85.652,127.378z
		 M108.75,461.523v-43.971h4.999v43.971H108.75z"/>
	<path d="M431.35,41.182c-4.378-4.56-10.397-6.794-17.393-6.459c-12.539,0.597-24.136,6.156-32.654,15.652
		c-0.024,0.027-0.046,0.056-0.07,0.082c-1.122-7.586-0.149-12.274,2.915-16.157c7.888-9.997,24.125-2.905,24.266-2.842
		c2.44,1.111,5.312,0.61,7.231-1.261s2.493-4.73,1.444-7.197c-7.109-16.722-20.81-24.774-38.587-22.672
		c-10.344,1.223-18.535,5.967-24.346,14.099c-6.741,9.433-9.094,22.152-9.541,33.801c-8.284-8.18-19.036-12.955-30.594-13.506
		c-6.996-0.332-13.015,1.9-17.393,6.459c-9.216,9.599-8.054,26.016-7.891,27.856c0.257,2.909,2.423,5.289,5.295,5.819
		c2.871,0.53,5.744-0.92,7.023-3.545c2.387-4.899,5.054-7.924,7.511-8.517c2.344-0.566,5.235,1.112,7.246,2.62
		c19.064,14.298,15.338,34.005,11.395,54.87c-0.304,1.606-0.604,3.197-0.89,4.767c-4.708,25.892,9.732,41.087,21.458,47.538v9.987
		c-3.356,0.256-6,3.054-6,6.475s2.645,6.219,6,6.475v42.55c-3.356,0.256-6,3.054-6,6.475s2.645,6.219,6,6.475v42.55
		c-3.356,0.256-6,3.054-6,6.475s2.645,6.219,6,6.475v42.55c-3.356,0.256-6,3.054-6,6.475s2.645,6.219,6,6.475v42.55
		c-3.356,0.256-6,3.054-6,6.475s2.645,6.219,6,6.475v50.496c0,3.59,2.91,6.5,6.5,6.5h17.999c3.59,0,6.5-2.91,6.5-6.5v-50.496
		c3.356-0.256,6-3.054,6-6.475s-2.645-6.219-6-6.475v-42.55c3.356-0.256,6-3.054,6-6.475s-2.645-6.219-6-6.475v-42.55
		c3.356-0.256,6-3.054,6-6.475s-2.645-6.219-6-6.475v-42.55c3.356-0.256,6-3.054,6-6.475s-2.645-6.219-6-6.475v-42.55
		c3.356-0.256,6-3.054,6-6.475s-2.645-6.219-6-6.475v-9.237c11.937-5.971,27.789-21.331,22.888-48.288
		c-0.285-1.57-0.586-3.161-0.89-4.767c-3.944-20.865-7.669-40.572,11.395-54.87c2.011-1.508,4.901-3.187,7.246-2.62
		c2.457,0.593,5.124,3.618,7.511,8.517c1.279,2.626,4.158,4.076,7.023,3.545c2.872-0.53,5.038-2.91,5.295-5.819
		C439.403,67.198,440.565,50.78,431.35,41.182z M364.733,21.986c3.644-5.1,8.647-7.961,15.296-8.747
		c6.217-0.735,11.336,0.128,15.514,2.685c-7.307,0.138-15.433,2.506-21.602,10.325c-9.071,11.495-6.454,25.882-2.458,39.853
		c-3.194,7.577-5.131,16.24-5.706,25.721c-0.771,12.731-0.249,23.29,0.172,31.774c0.304,6.127,0.676,13.642-0.164,16.119
		l-3.594-0.003c-0.839-2.481-0.467-9.992-0.163-16.116c0.42-8.484,0.943-19.042,0.172-31.774
		c-0.335-5.534-1.143-10.783-2.385-15.706l0.013-0.003C357.652,66.011,354.292,36.596,364.733,21.986z M365.773,182.552h-4.999v-7
		h4.999V182.552z M360.774,349.052v-42.5h4.999v42.5H360.774z M365.773,362.052v42.5h-4.999v-42.5H365.773z M360.774,293.552v-42.5
		h4.999v42.5H360.774z M360.774,238.052v-42.5h4.999v42.5H360.774z M360.774,461.523v-43.971h4.999v43.971H360.774z M404.366,55.015
		c-25.542,19.156-20.456,46.064-16.369,67.684c0.298,1.576,0.593,3.137,0.874,4.678c2.054,11.298-0.352,20.627-7.152,27.73
		c-0.042,0.043-0.083,0.087-0.125,0.13c-4.605,4.754-11.023,7.314-17.642,7.314h-0.022c-6.939,0-13.651-2.811-18.28-7.979
		c-4.91-5.481-8.921-14.12-6.544-27.195c0.28-1.541,0.575-3.102,0.874-4.678c4.087-21.621,9.173-48.528-16.369-67.684
		c-5.942-4.457-11.805-6.137-17.435-5.004c1.141-1.129,3.127-2.502,7.226-2.303c20.166,0.96,34.226,18.585,35.821,44.901
		c0.729,12.017,0.225,22.178-0.18,30.344c-0.723,14.593-1.2,24.234,7.006,28.466c1.668,0.861,3.563,1.297,5.634,1.297h4.61
		c2.071,0,3.966-0.436,5.633-1.296c8.207-4.232,7.729-13.873,7.006-28.467c-0.404-8.165-0.908-18.327-0.179-30.344
		c1.595-26.316,15.655-43.94,35.821-44.901c4.103-0.196,6.085,1.175,7.226,2.303C416.171,48.876,410.308,50.558,404.366,55.015z"/>
	<path d="M297.602,306.843v-14.32h4.44c3.59,0,6.5-2.91,6.5-6.5c0-3.461-2.707-6.282-6.118-6.481
		c-2.875-10.932-12.841-19.019-24.663-19.019h-81c-11.815,0-21.776,8.078-24.657,19h-1.352c-3.59,0-6.5,2.91-6.5,6.5
		s2.91,6.5,6.5,6.5h6.17v14.32c0,6.869-2.771,13.502-7.603,18.202c-15.926,15.497-24.697,35.683-24.697,56.838
		c0,20.56,8.337,40.32,23.477,55.639c8.153,8.25,12.644,19.083,12.644,30.501c0,3.59,2.91,6.5,6.5,6.5h100.03
		c3.59,0,6.5-2.91,6.5-6.5c0-5.669,1.11-11.207,3.305-16.471c2.174-5.245,5.317-9.963,9.348-14.03
		c15.14-15.319,23.477-35.079,23.477-55.639c0-21.156-8.771-41.341-24.699-56.84C300.372,320.345,297.602,313.712,297.602,306.843z
		 M196.761,273.523h81c4.514,0,8.476,2.405,10.674,6h-17.923c-3.59,0-6.5,2.91-6.5,6.5v41c0,1.378-1.122,2.5-2.5,2.5
		s-2.5-1.122-2.5-2.5v-40.492c0-3.864-3.144-7.008-7.008-7.008l-65.916,0C188.285,275.927,192.247,273.523,196.761,273.523z
		 M178.383,334.363c7.333-7.131,11.538-17.161,11.538-27.52v-14.32h16.59h39.5v34.5c0,8.547,6.954,15.5,15.501,15.5
		c8.546,0,15.5-6.953,15.5-15.5v-34.5l7.59,0v14.32c0,10.359,4.206,20.39,11.537,27.519c4.081,3.972,7.596,8.304,10.521,12.903
		l-10.323,4.141l-17.523-7.029c-1.554-0.623-3.287-0.623-4.84,0l-17.52,7.029l-17.52-7.029c-1.554-0.624-3.287-0.624-4.841,0
		l-17.519,7.029l-17.52-7.029c-1.554-0.624-3.288-0.624-4.841,0l-17.517,7.029l-9.138-3.667
		C170.542,342.962,174.162,338.471,178.383,334.363z M157.959,375.383c0.567-5.465,1.846-10.82,3.795-15.966l12.522,5.024
		c0.777,0.312,1.599,0.468,2.42,0.468s1.644-0.156,2.42-0.468l17.517-7.029l17.52,7.029c1.554,0.624,3.287,0.624,4.841,0
		l17.519-7.029l17.52,7.029c1.554,0.624,3.287,0.623,4.841,0l17.52-7.029l17.523,7.029c1.553,0.623,3.287,0.623,4.84,0l13.804-5.537
		c2.061,5.304,3.417,10.83,4.004,16.479H157.959z M316.561,388.383c-0.563,5.403-1.83,10.702-3.747,15.804l-9.465-3.798
		c-1.553-0.624-3.288-0.624-4.841,0l-17.517,7.029l-17.519-7.029c-1.554-0.624-3.287-0.624-4.841,0l-17.52,7.029l-17.519-7.029
		c-1.554-0.624-3.287-0.623-4.841,0l-17.52,7.029l-17.523-7.029c-1.553-0.623-3.287-0.623-4.84,0l-16.101,6.459
		c-2.52-5.908-4.145-12.117-4.807-18.465H316.561z M297.186,428.376c-5.218,5.263-9.296,11.386-12.114,18.186
		c-2.011,4.824-3.323,9.835-3.923,14.961h-87.782c-1.441-12.431-7.004-24.013-16.022-33.139c-3.11-3.147-5.874-6.516-8.282-10.055
		l12.227-4.904l17.523,7.029c1.554,0.623,3.287,0.623,4.84,0l17.52-7.029l17.519,7.029c1.554,0.624,3.287,0.624,4.841,0l17.52-7.029
		l17.519,7.029c0.777,0.312,1.599,0.468,2.42,0.468s1.644-0.156,2.42-0.468l17.517-7.029l6.117,2.454
		C304.293,420.318,301.002,424.514,297.186,428.376z"/>
	<path d="M244.999,227.939c-1.532,3.247-0.143,7.12,3.104,8.653c0.896,0.423,1.84,0.623,2.77,0.623c2.437,0,4.773-1.377,5.883-3.727
		c5.281-11.19,5.281-24.026,0.001-35.217c-3.617-7.664-3.617-16.455,0-24.119c1.532-3.247,0.142-7.12-3.105-8.652
		c-3.245-1.531-7.12-0.142-8.652,3.104c-5.28,11.19-5.28,24.025,0,35.215C248.617,211.483,248.616,220.275,244.999,227.939z"/>
	<path d="M217.766,227.939c-1.532,3.247-0.142,7.12,3.104,8.653c0.896,0.423,1.84,0.623,2.77,0.623c2.437,0,4.773-1.377,5.883-3.727
		c5.281-11.191,5.281-24.027,0-35.217c-3.617-7.664-3.617-16.455,0-24.119c1.532-3.247,0.142-7.12-3.104-8.652
		c-3.245-1.531-7.12-0.142-8.652,3.104c-5.28,11.19-5.28,24.025,0,35.215C221.383,211.483,221.383,220.275,217.766,227.939z"/>
</g>
<g>
</g>
<g>
</g>
<g>
</g>
<g>
</g>
<g>
</g>
<g>
</g>
<g>
</g>
<g>
</g>
<g>
</g>
<g>
</g>
<g>
</g>
<g>
</g>
<g>
</g>
<g>
</g>
<g>
</g>
</svg>
