<?xml version="1.0" encoding="iso-8859-1"?>
<!-- Generator: Adobe Illustrator 18.0.0, SVG Export Plug-In . SVG Version: 6.00 Build 0)  -->
<!DOCTYPE svg PUBLIC "-//W3C//DTD SVG 1.1//EN" "http://www.w3.org/Graphics/SVG/1.1/DTD/svg11.dtd">
<svg version="1.1" id="Capa_1" xmlns="http://www.w3.org/2000/svg" xmlns:xlink="http://www.w3.org/1999/xlink" x="0px" y="0px"
	 viewBox="0 0 478.269 478.269" style="enable-background:new 0 0 478.269 478.269;" xml:space="preserve">
<path d="M364.634,465.269h-73.105l-5.745-81.02c8.324-3.574,14.441-11.545,15.205-21.028l0.156-1.927
	c0.146-1.809-0.47-3.598-1.7-4.932c-1.23-1.334-2.963-2.093-4.778-2.093H283.66l-5.483-77.405
	c9.908-2.747,17.518-11.492,18.379-22.147l0.154-1.927c0.146-1.809-0.471-3.596-1.701-4.93s-2.963-2.092-4.777-2.092H275.97
	l-5.079-71.637c9.521-2.983,16.751-11.545,17.586-21.914l0.155-1.927c0.146-1.809-0.471-3.596-1.701-4.93s-2.963-2.092-4.777-2.092
	H268.7l-3.496-49.378c10.016-1.802,17.847-9.993,18.917-20.461c0.187-1.829-0.41-3.652-1.643-5.017s-2.985-2.144-4.824-2.144
	h-16.312l-1.986-39.824c-0.173-3.46-3.028-6.176-6.492-6.176h-6.229V6.5c0-3.59-2.91-6.5-6.5-6.5s-6.5,2.91-6.5,6.5v13.769h-8.23
	c-3.464,0-6.319,2.717-6.492,6.176l-1.986,39.824h-16.312c-1.839,0-3.592,0.779-4.824,2.144s-1.829,3.188-1.643,5.017
	c1.07,10.468,8.902,18.66,18.918,20.461l-3.496,49.378h-13.455c-1.815,0-3.548,0.759-4.778,2.093c-1.23,1.334-1.847,3.123-1.7,4.932
	l0.156,1.924c0.835,10.369,8.065,18.93,17.586,21.913l-5.078,71.637h-14.261c-1.814,0-3.547,0.759-4.777,2.092
	s-1.848,3.121-1.701,4.93l0.155,1.927c0.858,10.654,8.468,19.4,18.378,22.146l-5.483,77.404h-11.007
	c-1.814,0-3.547,0.759-4.777,2.092s-1.848,3.121-1.702,4.93l0.156,1.927c0.764,9.485,6.88,17.457,15.206,21.031l-5.745,81.02
	h-73.105c-3.59,0-6.5,2.91-6.5,6.5s2.91,6.5,6.5,6.5h79.16h92.68h79.16c3.59,0,6.5-2.91,6.5-6.5S368.224,465.269,364.634,465.269z
	 M243.658,277.769l1.829,76.5h-12.704l1.837-76.5H243.658z M258.491,354.269l-1.829-76.5h8.547l5.419,76.5H258.491z
	 M241.198,175.269l1.689,70.5h-7.496l1.689-70.5H241.198z M255.891,245.769l-1.689-70.5h3.737l4.999,70.5H255.891z M252.199,94.269
	l0.488,6.892h-27.104l0.488-6.892H252.199z M224.662,114.161h28.945l0.503,7.108h-29.952L224.662,114.161z M231.588,33.269h15.093
	l1.645,33h-18.383L231.588,33.269z M267.126,79.269c-1.701,1.261-3.808,2-6.081,2h-43.82c-2.273,0-4.38-0.739-6.081-2H267.126z
	 M223.238,134.269h31.793l0.637,9h-33.067L223.238,134.269z M204.362,156.269h69.545c-2.112,3.592-6.026,6-10.414,6h-48.718
	C210.387,162.269,206.474,159.861,204.362,156.269z M220.328,175.269h3.748l-1.689,70.5h-7.057L220.328,175.269z M196.285,258.769
	h85.699c-2.113,3.592-6.026,6-10.414,6h-64.871C202.311,264.769,198.397,262.361,196.285,258.769z M213.06,277.769h8.556
	l-1.837,76.5h-12.138L213.06,277.769z M286.419,367.269c-2.112,3.592-6.025,6-10.413,6h-73.742c-4.388,0-8.302-2.408-10.414-6
	H286.419z M246.258,386.269l1.889,79h-18.025l1.898-79H246.258z M205.373,386.269h13.643l-1.898,79h-17.347L205.373,386.269z
	 M261.151,465.269l-1.889-79h13.634l5.601,79H261.151z"/>
<g>
</g>
<g>
</g>
<g>
</g>
<g>
</g>
<g>
</g>
<g>
</g>
<g>
</g>
<g>
</g>
<g>
</g>
<g>
</g>
<g>
</g>
<g>
</g>
<g>
</g>
<g>
</g>
<g>
</g>
</svg>
