<?xml version="1.0" encoding="iso-8859-1"?>
<!-- Generator: Adobe Illustrator 18.0.0, SVG Export Plug-In . SVG Version: 6.00 Build 0)  -->
<!DOCTYPE svg PUBLIC "-//W3C//DTD SVG 1.1//EN" "http://www.w3.org/Graphics/SVG/1.1/DTD/svg11.dtd">
<svg version="1.1" id="Capa_1" xmlns="http://www.w3.org/2000/svg" xmlns:xlink="http://www.w3.org/1999/xlink" x="0px" y="0px"
	 viewBox="0 0 456.695 456.695" style="enable-background:new 0 0 456.695 456.695;" xml:space="preserve">
<g>
	<path d="M210.392,200.695c1.269,1.269,2.933,1.904,4.596,1.904s3.327-0.635,4.596-1.904c2.539-2.539,2.539-6.654,0-9.192
		c-15.792-15.792-41.485-15.791-57.276,0c-2.539,2.538-2.539,6.654,0,9.192c2.538,2.539,6.654,2.539,9.192,0
		c3.11-3.11,6.786-5.311,10.699-6.617c-0.016,0.213-0.033,0.426-0.033,0.643c0,4.849,3.931,8.779,8.779,8.779
		c4.849,0,8.779-3.931,8.779-8.779c0-0.217-0.017-0.43-0.032-0.643C203.606,195.384,207.282,197.586,210.392,200.695z"/>
	<path d="M285.193,200.695c1.269,1.269,2.933,1.904,4.596,1.904s3.327-0.635,4.596-1.904c2.539-2.539,2.539-6.654,0-9.192
		c-15.791-15.791-41.485-15.792-57.276,0c-2.539,2.539-2.539,6.654,0,9.192c2.538,2.538,6.654,2.538,9.192,0
		c3.11-3.11,6.786-5.311,10.699-6.617c-0.016,0.213-0.033,0.426-0.033,0.643c0,4.849,3.931,8.779,8.779,8.779
		c4.849,0,8.779-3.931,8.779-8.779c0-0.217-0.017-0.43-0.033-0.643C278.407,195.384,282.083,197.585,285.193,200.695z"/>
	<circle cx="228.347" cy="177.025" r="6.723"/>
	<path d="M243.695,245.269l-6.743-2c-1.206-0.358-2.489-0.358-3.695,0l-4.903,1.453l-4.908-1.453c-1.205-0.356-2.486-0.356-3.691,0
		l-6.754,2c-3.442,1.019-5.406,4.636-4.387,8.078c0.837,2.826,3.425,4.656,6.229,4.656c0.611,0,1.233-0.086,1.849-0.269l4.908-1.454
		l4.908,1.454c1.206,0.357,2.488,0.357,3.692,0l4.901-1.452l4.896,1.452c3.441,1.022,7.06-0.941,8.08-4.383
		C249.099,249.907,247.137,246.289,243.695,245.269z"/>
	<path d="M233.246,259.069l-4.901,1.452l-4.896-1.452c-3.438-1.02-7.059,0.941-8.08,4.383c-1.021,3.441,0.941,7.059,4.383,8.08
		l6.743,2c0.603,0.179,1.226,0.269,1.848,0.269c0.622,0,1.244-0.089,1.847-0.268l6.749-2c3.442-1.02,5.405-4.637,4.385-8.079
		S236.688,258.049,233.246,259.069z"/>
	<path d="M215.797,227.401c0,3.59,2.91,6.5,6.5,6.5h12.099c3.59,0,6.5-2.91,6.5-6.5s-2.91-6.5-6.5-6.5h-12.099
		C218.708,220.901,215.797,223.811,215.797,227.401z"/>
	<path d="M390.678,373.391c-19.667-16.145-41.833-29.364-65.387-39.158c3.704-4.931,5.754-11,5.754-17.185
		c0-6.369-2.164-12.64-6.095-17.661c-1.332-1.698-2.035-3.734-2.035-5.889c0-2.483,0.948-4.833,2.664-6.612
		c6.891-7.128,8.29-18.132,3.402-26.761l-6.854-12.102c2.736-3.034,5.184-6.681,6.982-11.048
		c7.504-18.224-1.396-33.944-10.129-42.813c22.628-13.028,36.873-37.292,36.873-63.811c0-40.583-32.972-73.6-73.5-73.6
		c-2.811,0-5.625,0.182-8.42,0.503c-1.712-3.628-4.484-6.738-8.043-8.82h0l-15.438-9.031c5.384-2.203,9.19-7.491,9.19-13.659
		c0-5.221-2.799-10.103-7.306-12.739l0,0L231.629,0.89c-2.027-1.187-4.537-1.187-6.564,0l-20.707,12.114
		c-4.507,2.636-7.306,7.518-7.306,12.739c0,6.167,3.806,11.456,9.19,13.659l-15.438,9.031c-3.556,2.081-6.327,5.188-8.04,8.814
		c-2.778-0.317-5.574-0.497-8.368-0.497c-40.528,0-73.5,33.017-73.5,73.6c0,26.456,14.175,50.67,36.709,63.72
		c-8.762,8.852-17.75,24.617-10.22,42.905c1.825,4.432,4.321,8.118,7.106,11.179l-6.779,11.971
		c-4.887,8.628-3.488,19.633,3.396,26.754c1.722,1.785,2.669,4.136,2.669,6.619c0,2.155-0.704,4.191-2.038,5.893
		c-3.929,5.018-6.092,11.288-6.092,17.657c0,6.186,2.05,12.255,5.753,17.185c-23.555,9.795-45.721,23.014-65.387,39.158
		c-2.625,2.155-3.145,5.972-1.199,8.755c0.233,0.333,23.206,33.628,19.528,67.342c-0.39,3.569,2.188,6.777,5.756,7.167
		c3.574,0.39,6.778-2.188,7.167-5.756c3.338-30.601-11.606-59.563-18.509-71.06c5.9-4.613,12.03-8.939,18.337-13
		c6.51,12.081,20.728,43.004,21.212,83.432c0.042,3.563,2.944,6.422,6.498,6.422c0.026,0,0.053,0,0.079,0
		c3.59-0.043,6.465-2.988,6.422-6.577c-0.526-43.995-15.962-77.097-23.067-90.046c20.087-11.492,41.782-20.22,64.202-25.696
		c-7.473,21.487-19.259,68.587-1.762,117.989c0.944,2.667,3.451,4.332,6.127,4.332c0.72,0,1.453-0.121,2.17-0.375
		c3.384-1.198,5.156-4.913,3.957-8.297c-8.754-24.717-9.405-49.164-7.091-69.49c2.411,0.8,4.839,1.548,7.27,2.233
		c16.667,4.695,30.493,15.33,38.933,29.946l0.674,1.167c1.161,2.011,3.307,3.25,5.629,3.249s4.468-1.24,5.628-3.251l0.673-1.166
		c8.439-14.615,22.266-25.25,38.932-29.945c2.431-0.685,4.859-1.433,7.27-2.233c2.315,20.327,1.663,44.773-7.09,69.49
		c-1.199,3.384,0.573,7.099,3.957,8.297c0.717,0.254,1.45,0.375,2.17,0.375c2.676,0,5.183-1.666,6.127-4.332
		c17.497-49.402,5.71-96.502-1.762-117.989c22.421,5.476,44.116,14.204,64.202,25.696c-7.105,12.949-22.54,46.051-23.067,90.046
		c-0.043,3.589,2.832,6.534,6.422,6.577c0.026,0,0.053,0,0.079,0c3.554,0,6.456-2.859,6.498-6.422
		c0.482-40.28,14.712-71.302,21.222-83.426c6.303,4.059,12.43,8.383,18.326,12.993c-6.903,11.496-21.848,40.459-18.509,71.06
		c0.389,3.568,3.588,6.146,7.167,5.756c3.568-0.389,6.146-3.598,5.756-7.167c-3.678-33.713,19.295-67.009,19.524-67.336
		C393.828,379.368,393.307,375.549,390.678,373.391z M295.013,295.415c0,0.459-0.374,0.833-0.833,0.833s-0.833-0.374-0.833-0.833
		s0.374-0.833,0.833-0.833S295.013,294.955,295.013,295.415z M265.985,321.217c-24.184,9.621-51.094,9.62-75.278,0l5.221-24.055
		c10.042,4.412,20.979,6.838,32.417,6.838c11.438,0,22.376-2.426,32.418-6.839L265.985,321.217z M228.346,291
		c-41.564,0-75.38-38.198-75.38-85.15c0-14.837,3.4-29.274,9.847-42.051l31.028-10.441l32.471,10.927
		c1.346,0.452,2.802,0.453,4.147,0l32.446-10.926l30.973,10.439c6.448,12.777,9.848,27.216,9.848,42.053
		C303.726,252.802,269.911,291,228.346,291z M163.346,295.415c0,0.459-0.374,0.833-0.833,0.833s-0.833-0.374-0.833-0.833
		s0.374-0.833,0.833-0.833S163.346,294.955,163.346,295.415z M136.896,130.35c0-20.733,16.822-37.6,37.5-37.6
		c0.988,0,1.967,0.05,2.942,0.126c-15.073,13.821-24.541,33.661-24.541,55.674v6.375c-0.79,1.443-1.557,2.899-2.276,4.38
		C141.987,152.224,136.896,141.66,136.896,130.35z M200.985,73c-3.95,0-7.163-3.213-7.163-7.163c0-0.512,0.069-1.013,0.176-1.503
		h68.697c0.106,0.491,0.176,0.992,0.176,1.503c0,3.95-3.213,7.163-7.163,7.163H200.985z M306.188,159.337
		c-0.724-1.491-1.496-2.957-2.291-4.409v-6.377c0-22.012-9.467-41.85-24.537-55.671c0.991-0.078,1.988-0.13,2.993-0.13
		c20.678,0,37.5,16.867,37.5,37.6C319.853,141.677,314.745,152.255,306.188,159.337z M279.043,128.213c-3.59,0-6.5,2.91-6.5,6.5
		v8.175l-3.898-1.314v-15.067c0-3.59-2.91-6.5-6.5-6.5s-6.5,2.91-6.5,6.5v15.579l-3.899,1.313v-22.506c0-3.59-2.91-6.5-6.5-6.5
		s-6.5,2.91-6.5,6.5v26.884l-3.899,1.313v-34.675c0-3.59-2.91-6.5-6.5-6.5s-6.5,2.91-6.5,6.5v34.651l-3.899-1.312v-26.861
		c0-3.59-2.91-6.5-6.5-6.5s-6.5,2.91-6.5,6.5v22.486l-3.899-1.312v-15.56c0-3.59-2.91-6.5-6.5-6.5s-6.5,2.91-6.5,6.5v15.083
		l-3.898,1.312v-8.189c0-3.59-2.91-6.5-6.5-6.5s-6.5,2.91-6.5,6.5v12.564l-5.354,1.802v-0.528c0-11.521,3.144-22.316,8.6-31.596
		c15.857-7.578,34.459-11.586,53.95-11.586c19.491,0,38.093,4.009,53.951,11.587c5.456,9.28,8.6,20.075,8.6,31.596v0.523
		l-5.354-1.805v-12.557C285.543,131.123,282.633,128.213,279.043,128.213z M228.347,86c12.736,0,24.589,3.835,34.482,10.398
		c-10.991-2.652-22.599-4.03-34.482-4.03c-11.883,0-23.49,1.378-34.481,4.03C203.759,89.835,215.611,86,228.347,86z M211.59,51.334
		l16.757-9.803l16.757,9.803H211.59z M316.503,212.783c2.496,5.256,3.635,11.835,0.586,19.242c-1.491,3.621-3.722,6.534-6.19,8.868
		C313.949,232.061,315.882,222.621,316.503,212.783z M342.853,130.35c0,21.211-11.068,40.666-28.775,51.595
		c-0.774-3.432-1.714-6.813-2.818-10.131c13.44-9.422,21.592-24.849,21.592-41.465c0-27.901-22.654-50.6-50.5-50.6
		c-4.965,0-9.816,0.727-14.492,2.139c3.753-2.849,6.485-6.966,7.531-11.721c2.311-0.267,4.637-0.418,6.962-0.418
		C315.713,69.75,342.853,96.935,342.853,130.35z M210.922,24.225l17.425-10.194l17.425,10.194c0,0,0,0,0,0
		c0.536,0.314,0.87,0.896,0.87,1.518c0,0.969-0.789,1.758-1.758,1.758H211.81c-0.969,0-1.758-0.789-1.758-1.758
		C210.052,25.12,210.385,24.539,210.922,24.225z M113.896,130.35c0-33.415,27.14-60.6,60.5-60.6c2.305,0,4.613,0.148,6.905,0.411
		c1.041,4.743,3.76,8.853,7.497,11.702c-4.649-1.394-9.469-2.112-14.402-2.112c-27.846,0-50.5,22.699-50.5,50.6
		c0,16.597,8.135,32.008,21.547,41.432c-1.105,3.318-2.048,6.7-2.823,10.133C124.943,170.98,113.896,151.542,113.896,130.35z
		 M140.169,212.421c0.602,10.071,2.577,19.73,5.72,28.75c-2.585-2.379-4.933-5.382-6.483-9.146
		C136.286,224.447,137.552,217.736,140.169,212.421z M169.404,321.733c-8.563,2.09-17.02,4.65-25.34,7.613l-2.072-2.631
		c-2.157-2.737-3.345-6.17-3.345-9.667c0-3.528,1.151-6.862,3.325-9.639c3.099-3.951,4.806-8.892,4.806-13.911
		c0-5.867-2.241-11.422-6.317-15.648c-2.914-3.014-3.505-7.668-1.438-11.318l5.722-10.104c4.235,2.517,8.161,4.012,10.679,4.813
		c0.194,0.315,0.39,0.629,0.588,0.941v22.966c-3.4,2.16-5.667,5.95-5.667,10.267c0,6.708,5.458,12.167,12.167,12.167
		c6.708,0,12.167-5.458,12.167-12.167c0-4.317-2.267-8.107-5.667-10.267v-6.616c4.59,4.625,9.62,8.72,15.008,12.203l-6.286,28.964
		L169.404,321.733z M270.056,368.253c-16.975,4.782-31.504,14.74-41.709,28.429c-10.206-13.688-24.735-23.646-41.71-28.429
		c-2.963-0.835-5.917-1.776-8.838-2.793c2.656-14.308,6.419-25.547,8.829-31.884c13.422,5.235,27.568,7.856,41.719,7.856
		c14.147-0.001,28.298-2.622,41.719-7.856c2.411,6.338,6.174,17.577,8.829,31.884C275.972,366.477,273.018,367.419,270.056,368.253z
		 M278.959,319.7l-6.287-28.965c5.388-3.483,10.418-7.578,15.007-12.203v6.616c-3.399,2.16-5.667,5.95-5.667,10.267
		c0,6.708,5.458,12.167,12.167,12.167s12.167-5.458,12.167-12.167c0-4.317-2.267-8.107-5.667-10.267v-22.967
		c0.214-0.338,0.426-0.678,0.637-1.019c2.555-0.829,6.427-2.333,10.581-4.822l5.772,10.191c2.067,3.65,1.476,8.305-1.443,11.325
		c-4.07,4.22-6.311,9.775-6.311,15.642c0,5.02,1.707,9.96,4.803,13.907c2.177,2.78,3.328,6.115,3.328,9.643
		c0,3.496-1.188,6.929-3.348,9.669l-2.069,2.628c-8.32-2.963-16.777-5.523-25.34-7.613L278.959,319.7z"/>
	<path d="M228.346,421.356c-9.742,0-17.668,7.926-17.668,17.668s7.926,17.668,17.668,17.668s17.668-7.926,17.668-17.668
		S238.088,421.356,228.346,421.356z M228.346,443.693c-2.574,0-4.668-2.094-4.668-4.668c0-2.574,2.094-4.668,4.668-4.668
		c2.574,0,4.668,2.094,4.668,4.668C233.014,441.598,230.92,443.693,228.346,443.693z"/>
</g>
<g>
</g>
<g>
</g>
<g>
</g>
<g>
</g>
<g>
</g>
<g>
</g>
<g>
</g>
<g>
</g>
<g>
</g>
<g>
</g>
<g>
</g>
<g>
</g>
<g>
</g>
<g>
</g>
<g>
</g>
</svg>
