<?xml version="1.0" encoding="iso-8859-1"?>
<!-- Generator: Adobe Illustrator 18.0.0, SVG Export Plug-In . SVG Version: 6.00 Build 0)  -->
<!DOCTYPE svg PUBLIC "-//W3C//DTD SVG 1.1//EN" "http://www.w3.org/Graphics/SVG/1.1/DTD/svg11.dtd">
<svg version="1.1" id="Capa_1" xmlns="http://www.w3.org/2000/svg" xmlns:xlink="http://www.w3.org/1999/xlink" x="0px" y="0px"
	 viewBox="0 0 469.69 469.69" style="enable-background:new 0 0 469.69 469.69;" xml:space="preserve">
<path d="M354.942,339.377c23.868-18.678,46.884-59.531,58.543-82.374c3.728-7.29,4.592-15.665,2.432-23.585
	c-7.302-26.727-12.794-46.158-15.884-56.194c-0.554-1.802-1.864-3.274-3.589-4.035c-14.639-6.456-28.843-5.446-38.656-3.233
	c-0.693-4.659-0.696-9.015,0.281-12.813c0.895-3.477-1.199-7.02-4.676-7.914c-3.474-0.894-7.021,1.199-7.914,4.677
	c-6.429,24.998,15.791,61.521,26.469,79.073c0.798,1.313,1.539,2.531,2.185,3.608c-6.442,16.662-17.411,26.866-24.156,31.896
	c-4.042-8.948-8.148-16.344-10.698-20.69c5.555-6.542,9.984-11.901,13.169-15.94c1.818-2.305,1.865-5.542,0.116-7.899
	c-27.978-37.691-65.402-53.009-83.252-58.477c6.708-9.952,10.768-22.826,10.768-36.88c0-2.837-0.176-5.463-0.498-7.906
	c0.328-0.861,0.637-1.729,0.927-2.604c3.397-4.135,30.094-38.2,13.874-68.197c-5.832-10.789-15.466-18.746-27.97-23.176
	C262.331,14.792,250.27,0,234.856,0c-15.083,0-27.202,15.703-31.418,26.78c-12.417,4.442-21.989,12.373-27.793,23.11
	c-15.548,28.755,8.291,61.191,13.325,67.518c0.351,1.104,0.734,2.197,1.146,3.28c-0.322,2.444-0.499,5.071-0.499,7.91
	c0,14.053,4.06,26.926,10.767,36.878c-17.847,5.466-55.277,20.783-83.257,58.479c-1.75,2.357-1.702,5.594,0.116,7.899
	c3.183,4.036,7.612,9.395,13.169,15.939c-2.553,4.351-6.666,11.76-10.713,20.724c-6.727-4.983-17.663-15.134-24.142-31.928
	c0.646-1.078,1.387-2.296,2.186-3.609c10.678-17.552,32.896-54.074,26.469-79.073c-0.895-3.477-4.439-5.572-7.914-4.677
	c-3.477,0.894-5.571,4.437-4.677,7.914c0.977,3.798,0.974,8.154,0.281,12.813c-9.813-2.213-24.016-3.223-38.656,3.233
	c-1.726,0.761-3.035,2.233-3.59,4.036c-3.902,12.68-10.791,37.557-15.883,56.196c-2.16,7.918-1.296,16.293,2.429,23.578
	c11.661,22.846,34.676,63.698,58.546,82.378c3.331,4.196,7.711,7.219,12.948,8.891l-30.467,17.646
	c-0.126,0.065-0.237,0.15-0.357,0.222l-0.01-0.016L85,373.26c-14.942,8.994-23.524,25.395-22.397,42.802
	c1.126,17.403,11.75,32.557,27.723,39.548c15.191,6.649,22.695,9.706,41.38,12.509c7.373,1.106,14.386,1.572,20.977,1.572
	c20.212-0.001,36.41-4.385,46.594-8.147c-0.248,1.801,0.26,3.629,1.427,5.035c1.235,1.488,3.068,2.349,5.002,2.349h29.138h29.137
	c1.934,0,3.768-0.861,5.002-2.349c1.167-1.406,1.675-3.234,1.428-5.034c10.184,3.762,26.381,8.146,46.594,8.146
	c6.589,0,13.606-0.466,20.977-1.572c18.686-2.802,26.189-5.86,41.382-12.509c15.973-6.991,26.596-22.145,27.723-39.547
	c1.127-17.407-7.456-33.807-22.397-42.802l-11.861-7.14l-0.011,0.018c-0.072-0.043-0.135-0.097-0.208-0.138l-30.617-17.732
	C347.231,346.596,351.611,343.573,354.942,339.377z M387.435,238.04c0.598-1.751,0.421-3.674-0.486-5.287
	c-0.948-1.687-2.249-3.824-3.896-6.53c-5.759-9.466-16.458-27.067-22.083-43.672c7.726-1.737,17.44-2.257,27.534,1.447
	c3.165,10.544,8.271,28.682,14.872,52.845c1.305,4.786,0.785,9.844-1.467,14.247c-6.973,13.66-22.505,42.331-39.711,62.823
	c-0.223-10.838-3.249-22.453-7.146-33.061C363.269,275.313,379.255,261.995,387.435,238.04z M326.347,242.924
	c-1.395,1.631-2.838,3.31-4.307,5.013c-0.492-3.281-1.728-6.381-3.621-9.078l14.881-17.891c1.961,2.161,3.891,4.415,5.777,6.775
	C335.729,231.857,331.466,236.941,326.347,242.924z M251.047,428.758h-9.702v-35.814c1.061,0.434,2.132,0.833,3.207,1.219
	L251.047,428.758z M161.157,230.417l-15.566-18.713c12.875-11.836,26.399-20.007,37.928-25.542
	c-3.986,10.434-8.156,25.261-8.555,42.237c-0.243-0.053-0.478-0.124-0.724-0.169C169.704,227.414,165.155,228.204,161.157,230.417z
	 M234.851,116.333c3.59,0,6.5-2.91,6.5-6.5v-7.364c18.85,1.257,25.729,8.576,25.729,26.128c0,24.281-14.459,44.036-32.231,44.036
	c-17.773,0-32.232-19.754-32.232-44.036c0-17.553,6.881-24.872,25.734-26.128v7.364
	C228.351,113.423,231.261,116.333,234.851,116.333z M277.767,263.039c0.283,7.428,0.604,15.847-1.099,27.204
	c-0.327,2.181-0.471,4.38-0.452,6.575c-0.245,2.797-1.111,13.91-0.628,26.362l-29.875,7.916c-7.11,1.884-14.627,1.884-21.737,0
	l-29.875-7.916c0.487-12.578-0.401-23.794-0.635-26.448c0.014-2.166-0.121-4.336-0.444-6.489c-1.704-11.357-1.383-19.777-1.1-27.205
	c0.345-9.041,0.644-16.924-3.701-24.589c-0.569-7.339-0.233-14.403,0.648-20.966c6.281,9.031,14.419,24.138,17.741,45.077
	c2.134,13.448,7.882,26.024,16.625,36.37c4.59,5.432,6.792,7.771,6.884,7.868c1.228,1.301,2.938,2.038,4.727,2.038
	s3.499-0.737,4.727-2.038c0.092-0.097,2.294-2.437,6.884-7.868c8.742-10.345,14.491-22.922,16.625-36.37
	c3.301-20.808,11.466-35.958,17.762-45.038c0.87,6.543,1.196,13.59,0.626,20.926C277.123,246.113,277.422,253.997,277.767,263.039z
	 M234.845,365.421c-2.995,0-8.188-7.737-9.413-20.722c3.112,0.535,6.262,0.809,9.413,0.809c3.15,0,6.301-0.273,9.413-0.809
	C243.033,357.684,237.84,365.421,234.845,365.421z M239.715,195.77c-3.186,1.048-6.555,1.049-9.741,0
	c-8.818-2.903-15.551-9.764-18.425-18.307c6.81,5.182,14.783,8.17,23.3,8.17c8.513,0,16.482-2.985,23.29-8.162
	C255.263,186.01,248.532,192.868,239.715,195.77z M225.91,208.118c0.801,0.264,1.615,0.482,2.435,0.672v23.46
	c0,3.59,2.91,6.5,6.5,6.5s6.5-2.91,6.5-6.5v-23.46c0.82-0.19,1.634-0.408,2.435-0.672c12.593-4.145,22.262-13.862,26.517-25.996
	c1.989,4.165,4.748,10.677,7.063,18.775c-6.447,7.133-21.972,27.186-27.119,59.626c-1.762,11.104-6.504,21.483-13.715,30.016
	c-0.604,0.715-1.164,1.373-1.681,1.976c-0.517-0.603-1.077-1.261-1.681-1.976c-7.21-8.533-11.953-18.912-13.714-30.016
	c-5.142-32.406-20.638-52.449-27.098-59.603c2.313-8.087,5.064-14.605,7.048-18.78C203.658,194.266,213.323,203.975,225.91,208.118z
	 M185.872,358.552c3.833-5.245,5.988-13.452,7.15-22.209l19.187,5.084c0.597,18.632,7.971,33.018,18.171,36.287
	c-0.993,0.486-2.423,1.177-4.167,1.993c-16.594,7.729-35.746,8.049-52.546,0.877c-3.853-1.645-7.522-3.132-11.029-4.485
	C170.777,372.732,179.472,367.31,185.872,358.552z M225.136,394.167c1.076-0.386,2.147-0.785,3.209-1.22v35.811h-9.703
	L225.136,394.167z M243.486,379.711c-1.749-0.818-3.182-1.511-4.176-1.997c10.2-3.269,17.574-17.655,18.171-36.287l19.187-5.084
	c1.162,8.757,3.317,16.964,7.15,22.209c6.397,8.754,15.089,14.184,23.224,17.551c-3.503,1.352-7.169,2.837-11.018,4.481
	C279.222,387.755,260.07,387.435,243.486,379.711z M294.725,228.399c-0.399-16.976-4.57-31.804-8.555-42.237
	c11.53,5.535,25.054,13.705,37.928,25.541l-15.566,18.714c-3.999-2.213-8.55-3.002-13.083-2.186
	C295.204,228.275,294.968,228.346,294.725,228.399z M266.72,40.887c7.19,3.459,12.636,8.542,16.227,15.186
	c5.633,10.417,3.866,22.101,0.119,31.929c-2.382-16.309-10.724-30.273-22.308-38.747C263.505,46.806,265.54,43.967,266.72,40.887z
	 M214.937,33.435c0.738-3.061,3.535-8.51,7.454-13.003c2.42-2.775,7.259-7.432,12.465-7.432c4.488,0,9.503,2.965,13.761,8.134
	c4.091,4.968,6.298,10.612,6.298,13.4c0,2.858-2.932,5.916-7.475,7.954c-4.021-1.251-8.24-1.927-12.595-1.927
	c-4.352,0-8.569,0.674-12.587,1.924c-4.534-2.039-7.46-5.095-7.46-7.951C214.797,34.176,214.84,33.828,214.937,33.435z
	 M186.727,87.402c-3.588-9.697-5.17-21.116,0.353-31.329c3.547-6.561,8.898-11.603,15.955-15.059c1.186,3.029,3.204,5.82,5.91,8.235
	C197.503,57.618,189.224,71.347,186.727,87.402z M198.928,97.601c0-24.283,16.112-44.039,35.917-44.039
	c19.811,0,35.928,19.756,35.928,44.039c0,0.968-0.031,1.928-0.081,2.883c-10.683-11.214-27.701-11.216-35.843-11.216
	c-8.141,0-25.156,0.002-35.84,11.213C198.959,99.526,198.928,98.567,198.928,97.601z M136.39,220.97l14.882,17.89
	c-1.893,2.696-3.129,5.797-3.621,9.078c-1.47-1.704-2.914-3.384-4.307-5.013c-5.12-5.984-9.383-11.068-12.729-15.18
	C132.499,225.384,134.429,223.131,136.39,220.97z M67.778,251.084c-2.25-4.398-2.77-9.456-1.465-14.24
	c6.602-24.165,11.707-42.303,14.872-52.848c10.094-3.704,19.808-3.184,27.534-1.447c-5.625,16.606-16.324,34.206-22.083,43.673
	c-1.646,2.706-2.947,4.844-3.895,6.53c-0.907,1.613-1.084,3.536-0.486,5.287c8.179,23.955,24.166,37.274,32.383,42.811
	c-3.898,10.608-6.924,22.223-7.146,33.062C90.284,293.419,74.752,264.747,67.778,251.084z M121.892,325.435
	c-5.997-18.702,7.953-50.019,17.493-67.181c3.023,3.496,6.143,7.077,9.288,10.659l1.323,17.63l-18.533,3.505
	c-3.527,0.667-5.846,4.067-5.179,7.595c0.59,3.119,3.317,5.293,6.379,5.293c0.4,0,0.807-0.037,1.215-0.115l17.096-3.233l0.298,3.972
	c0.269,3.58,3.376,6.263,6.968,5.996c3.58-0.268,6.264-3.388,5.996-6.968l-3.81-50.788c-0.218-2.916,1.054-5.695,3.402-7.436
	l2.752-2.038c1.586-1.175,3.489-1.636,5.356-1.301c1.835,0.33,3.424,1.4,4.474,3.012c2.917,4.48,2.876,9.168,2.521,18.506
	c-0.29,7.603-0.65,17.066,1.234,29.628c1.135,7.571-0.778,15.455-5.25,21.631c-9.419,13.007-26.395,24.983-40.627,22.715
	C128.104,335.531,123.934,331.802,121.892,325.435z M148.567,351.203c2.902-1.674,25.188-15.893,32.294-24.026
	c-0.666,10.122-2.298,19.344-5.485,23.705c-10.595,14.498-30.883,17.183-35.5,17.613c-5.756-1.583-10.826-2.684-15.264-3.418
	L148.567,351.203z M133.635,455.262c-16.719-2.508-22.855-4.897-37.595-11.342c-11.405-4.987-19.432-15.741-20.425-28.149
	c-1.036-12.943,5.009-24.703,16.089-31.373l0.472-0.284c9.423-5.672,20.574-7.863,31.409-5.974
	c10.31,1.798,24.947,5.848,44.977,14.4c13.549,5.784,28.366,7.494,42.676,5.2l-1.103,5.877
	c-11.874-1.901-43.962-7.095-69.662-11.767c-35.478-6.448-58.719,17.102-59.691,18.108c-2.489,2.574-2.418,6.668,0.147,9.166
	c1.261,1.228,2.896,1.839,4.53,1.839c1.69,0,3.379-0.653,4.654-1.953c0.785-0.8,19.563-19.548,48.036-14.37
	c25.567,4.648,57.396,9.805,69.588,11.758l-5.609,29.875C194.15,450.038,168.16,460.44,133.635,455.262z M213.541,455.927
	l2.66-14.17h37.286l2.66,14.17H213.541z M377.512,384.113L377.512,384.113c10.667,6.421,17.246,18.118,16.633,30.553
	c-0.639,12.967-8.148,23.849-19.994,29.034c-15.105,6.611-21.189,9.026-38.097,11.562c-34.341,5.151-60.487-5.254-68.495-9.002
	l-5.606-29.862c12.193-1.953,44.022-7.11,69.588-11.758c28.404-5.166,47.158,13.478,48.029,14.363
	c1.274,1.313,2.968,1.972,4.664,1.972c1.626,0,3.255-0.607,4.517-1.826c2.581-2.495,2.651-6.61,0.156-9.191
	c-0.973-1.006-24.215-24.557-59.692-18.108c-25.7,4.673-57.787,9.866-69.662,11.767l-1.1-5.861
	c4.072,0.652,8.184,0.985,12.298,0.985c10.339,0,20.685-2.064,30.376-6.201c20.027-8.551,34.662-12.602,44.972-14.4
	C356.936,376.25,368.088,378.44,377.512,384.113z M329.802,368.497c-4.632-0.413-24.826-3.025-35.488-17.616
	c-3.188-4.362-4.824-13.585-5.49-23.71c7.107,8.137,29.397,22.357,32.289,24.026l23.964,13.879
	C340.636,365.811,335.562,366.913,329.802,368.497z M335.402,336.517c-14.237,2.269-31.21-9.709-40.628-22.715
	c-4.472-6.176-6.386-14.06-5.25-21.631c1.885-12.563,1.523-22.025,1.234-29.628c-0.356-9.338-0.397-14.026,2.521-18.506
	c1.05-1.612,2.638-2.682,4.473-3.012c1.868-0.336,3.771,0.125,5.357,1.301l2.752,2.038c2.349,1.741,3.621,4.52,3.402,7.436
	l-3.809,50.789c-0.269,3.58,2.416,6.699,5.995,6.968c3.589,0.268,6.699-2.416,6.968-5.996l0.298-3.972l17.096,3.233
	c0.408,0.077,0.814,0.115,1.215,0.115c3.063,0,5.79-2.174,6.38-5.293c0.667-3.527-1.651-6.928-5.179-7.595l-18.533-3.505
	l1.322-17.629c3.142-3.579,6.262-7.16,9.289-10.66c9.541,17.162,23.491,48.479,17.494,67.181
	C345.756,331.802,341.585,335.531,335.402,336.517z"/>
<g>
</g>
<g>
</g>
<g>
</g>
<g>
</g>
<g>
</g>
<g>
</g>
<g>
</g>
<g>
</g>
<g>
</g>
<g>
</g>
<g>
</g>
<g>
</g>
<g>
</g>
<g>
</g>
<g>
</g>
</svg>
